<mxfile host="app.diagrams.net" modified="2023-08-06T16:16:05.244Z" agent="Mozilla/5.0 (Macintosh; Intel Mac OS X 10_15_7) AppleWebKit/537.36 (KHTML, like Gecko) Chrome/115.0.0.0 Safari/537.36" etag="Dx4CyC_Fa6m3t17G9sa_" version="21.6.6" type="github">
  <diagram name="Page-1" id="PpoQ2pTOmgjkjKvURZby">
    <mxGraphModel dx="954" dy="496" grid="1" gridSize="10" guides="1" tooltips="1" connect="1" arrows="1" fold="1" page="1" pageScale="1" pageWidth="850" pageHeight="1100" math="0" shadow="0">
      <root>
        <mxCell id="0" />
        <mxCell id="1" parent="0" />
        <mxCell id="QoBP-1hQRRKNbY7nbJOW-32" value="" style="shape=table;startSize=0;container=1;collapsible=0;childLayout=tableLayout;fontSize=16;" vertex="1" parent="1">
          <mxGeometry x="270" y="110" width="310" height="120" as="geometry" />
        </mxCell>
        <mxCell id="QoBP-1hQRRKNbY7nbJOW-33" value="" style="shape=tableRow;horizontal=0;startSize=0;swimlaneHead=0;swimlaneBody=0;strokeColor=inherit;top=0;left=0;bottom=0;right=0;collapsible=0;dropTarget=0;fillColor=none;points=[[0,0.5],[1,0.5]];portConstraint=eastwest;fontSize=16;" vertex="1" parent="QoBP-1hQRRKNbY7nbJOW-32">
          <mxGeometry width="310" height="40" as="geometry" />
        </mxCell>
        <mxCell id="QoBP-1hQRRKNbY7nbJOW-34" value="Customer ID" style="shape=partialRectangle;html=1;whiteSpace=wrap;connectable=0;strokeColor=inherit;overflow=hidden;fillColor=none;top=0;left=0;bottom=0;right=0;pointerEvents=1;fontSize=16;" vertex="1" parent="QoBP-1hQRRKNbY7nbJOW-33">
          <mxGeometry width="100" height="40" as="geometry">
            <mxRectangle width="100" height="40" as="alternateBounds" />
          </mxGeometry>
        </mxCell>
        <mxCell id="QoBP-1hQRRKNbY7nbJOW-35" value="Order ID" style="shape=partialRectangle;html=1;whiteSpace=wrap;connectable=0;strokeColor=inherit;overflow=hidden;fillColor=none;top=0;left=0;bottom=0;right=0;pointerEvents=1;fontSize=16;" vertex="1" parent="QoBP-1hQRRKNbY7nbJOW-33">
          <mxGeometry x="100" width="100" height="40" as="geometry">
            <mxRectangle width="100" height="40" as="alternateBounds" />
          </mxGeometry>
        </mxCell>
        <mxCell id="QoBP-1hQRRKNbY7nbJOW-36" value="Product ID" style="shape=partialRectangle;html=1;whiteSpace=wrap;connectable=0;strokeColor=inherit;overflow=hidden;fillColor=none;top=0;left=0;bottom=0;right=0;pointerEvents=1;fontSize=16;" vertex="1" parent="QoBP-1hQRRKNbY7nbJOW-33">
          <mxGeometry x="200" width="110" height="40" as="geometry">
            <mxRectangle width="110" height="40" as="alternateBounds" />
          </mxGeometry>
        </mxCell>
        <mxCell id="QoBP-1hQRRKNbY7nbJOW-37" value="" style="shape=tableRow;horizontal=0;startSize=0;swimlaneHead=0;swimlaneBody=0;strokeColor=inherit;top=0;left=0;bottom=0;right=0;collapsible=0;dropTarget=0;fillColor=none;points=[[0,0.5],[1,0.5]];portConstraint=eastwest;fontSize=16;" vertex="1" parent="QoBP-1hQRRKNbY7nbJOW-32">
          <mxGeometry y="40" width="310" height="40" as="geometry" />
        </mxCell>
        <mxCell id="QoBP-1hQRRKNbY7nbJOW-38" value="1" style="shape=partialRectangle;html=1;whiteSpace=wrap;connectable=0;strokeColor=inherit;overflow=hidden;fillColor=none;top=0;left=0;bottom=0;right=0;pointerEvents=1;fontSize=16;" vertex="1" parent="QoBP-1hQRRKNbY7nbJOW-37">
          <mxGeometry width="100" height="40" as="geometry">
            <mxRectangle width="100" height="40" as="alternateBounds" />
          </mxGeometry>
        </mxCell>
        <mxCell id="QoBP-1hQRRKNbY7nbJOW-39" value="O1" style="shape=partialRectangle;html=1;whiteSpace=wrap;connectable=0;strokeColor=inherit;overflow=hidden;fillColor=none;top=0;left=0;bottom=0;right=0;pointerEvents=1;fontSize=16;" vertex="1" parent="QoBP-1hQRRKNbY7nbJOW-37">
          <mxGeometry x="100" width="100" height="40" as="geometry">
            <mxRectangle width="100" height="40" as="alternateBounds" />
          </mxGeometry>
        </mxCell>
        <mxCell id="QoBP-1hQRRKNbY7nbJOW-40" value="101" style="shape=partialRectangle;html=1;whiteSpace=wrap;connectable=0;strokeColor=inherit;overflow=hidden;fillColor=none;top=0;left=0;bottom=0;right=0;pointerEvents=1;fontSize=16;" vertex="1" parent="QoBP-1hQRRKNbY7nbJOW-37">
          <mxGeometry x="200" width="110" height="40" as="geometry">
            <mxRectangle width="110" height="40" as="alternateBounds" />
          </mxGeometry>
        </mxCell>
        <mxCell id="QoBP-1hQRRKNbY7nbJOW-41" value="" style="shape=tableRow;horizontal=0;startSize=0;swimlaneHead=0;swimlaneBody=0;strokeColor=inherit;top=0;left=0;bottom=0;right=0;collapsible=0;dropTarget=0;fillColor=none;points=[[0,0.5],[1,0.5]];portConstraint=eastwest;fontSize=16;" vertex="1" parent="QoBP-1hQRRKNbY7nbJOW-32">
          <mxGeometry y="80" width="310" height="40" as="geometry" />
        </mxCell>
        <mxCell id="QoBP-1hQRRKNbY7nbJOW-42" value="1" style="shape=partialRectangle;html=1;whiteSpace=wrap;connectable=0;strokeColor=inherit;overflow=hidden;fillColor=none;top=0;left=0;bottom=0;right=0;pointerEvents=1;fontSize=16;" vertex="1" parent="QoBP-1hQRRKNbY7nbJOW-41">
          <mxGeometry width="100" height="40" as="geometry">
            <mxRectangle width="100" height="40" as="alternateBounds" />
          </mxGeometry>
        </mxCell>
        <mxCell id="QoBP-1hQRRKNbY7nbJOW-43" value="O1" style="shape=partialRectangle;html=1;whiteSpace=wrap;connectable=0;strokeColor=inherit;overflow=hidden;fillColor=none;top=0;left=0;bottom=0;right=0;pointerEvents=1;fontSize=16;" vertex="1" parent="QoBP-1hQRRKNbY7nbJOW-41">
          <mxGeometry x="100" width="100" height="40" as="geometry">
            <mxRectangle width="100" height="40" as="alternateBounds" />
          </mxGeometry>
        </mxCell>
        <mxCell id="QoBP-1hQRRKNbY7nbJOW-44" value="102" style="shape=partialRectangle;html=1;whiteSpace=wrap;connectable=0;strokeColor=inherit;overflow=hidden;fillColor=none;top=0;left=0;bottom=0;right=0;pointerEvents=1;fontSize=16;" vertex="1" parent="QoBP-1hQRRKNbY7nbJOW-41">
          <mxGeometry x="200" width="110" height="40" as="geometry">
            <mxRectangle width="110" height="40" as="alternateBounds" />
          </mxGeometry>
        </mxCell>
        <mxCell id="QoBP-1hQRRKNbY7nbJOW-45" value="" style="shape=table;startSize=0;container=1;collapsible=0;childLayout=tableLayout;fontSize=16;" vertex="1" parent="1">
          <mxGeometry x="270" y="230" width="310" height="120" as="geometry" />
        </mxCell>
        <mxCell id="QoBP-1hQRRKNbY7nbJOW-46" value="" style="shape=tableRow;horizontal=0;startSize=0;swimlaneHead=0;swimlaneBody=0;strokeColor=inherit;top=0;left=0;bottom=0;right=0;collapsible=0;dropTarget=0;fillColor=none;points=[[0,0.5],[1,0.5]];portConstraint=eastwest;fontSize=16;" vertex="1" parent="QoBP-1hQRRKNbY7nbJOW-45">
          <mxGeometry width="310" height="40" as="geometry" />
        </mxCell>
        <mxCell id="QoBP-1hQRRKNbY7nbJOW-47" value="2" style="shape=partialRectangle;html=1;whiteSpace=wrap;connectable=0;strokeColor=inherit;overflow=hidden;fillColor=none;top=0;left=0;bottom=0;right=0;pointerEvents=1;fontSize=16;" vertex="1" parent="QoBP-1hQRRKNbY7nbJOW-46">
          <mxGeometry width="100" height="40" as="geometry">
            <mxRectangle width="100" height="40" as="alternateBounds" />
          </mxGeometry>
        </mxCell>
        <mxCell id="QoBP-1hQRRKNbY7nbJOW-48" value="O2" style="shape=partialRectangle;html=1;whiteSpace=wrap;connectable=0;strokeColor=inherit;overflow=hidden;fillColor=none;top=0;left=0;bottom=0;right=0;pointerEvents=1;fontSize=16;" vertex="1" parent="QoBP-1hQRRKNbY7nbJOW-46">
          <mxGeometry x="100" width="100" height="40" as="geometry">
            <mxRectangle width="100" height="40" as="alternateBounds" />
          </mxGeometry>
        </mxCell>
        <mxCell id="QoBP-1hQRRKNbY7nbJOW-49" value="101" style="shape=partialRectangle;html=1;whiteSpace=wrap;connectable=0;strokeColor=inherit;overflow=hidden;fillColor=none;top=0;left=0;bottom=0;right=0;pointerEvents=1;fontSize=16;" vertex="1" parent="QoBP-1hQRRKNbY7nbJOW-46">
          <mxGeometry x="200" width="110" height="40" as="geometry">
            <mxRectangle width="110" height="40" as="alternateBounds" />
          </mxGeometry>
        </mxCell>
        <mxCell id="QoBP-1hQRRKNbY7nbJOW-50" value="" style="shape=tableRow;horizontal=0;startSize=0;swimlaneHead=0;swimlaneBody=0;strokeColor=inherit;top=0;left=0;bottom=0;right=0;collapsible=0;dropTarget=0;fillColor=none;points=[[0,0.5],[1,0.5]];portConstraint=eastwest;fontSize=16;" vertex="1" parent="QoBP-1hQRRKNbY7nbJOW-45">
          <mxGeometry y="40" width="310" height="40" as="geometry" />
        </mxCell>
        <mxCell id="QoBP-1hQRRKNbY7nbJOW-51" value="2" style="shape=partialRectangle;html=1;whiteSpace=wrap;connectable=0;strokeColor=inherit;overflow=hidden;fillColor=none;top=0;left=0;bottom=0;right=0;pointerEvents=1;fontSize=16;" vertex="1" parent="QoBP-1hQRRKNbY7nbJOW-50">
          <mxGeometry width="100" height="40" as="geometry">
            <mxRectangle width="100" height="40" as="alternateBounds" />
          </mxGeometry>
        </mxCell>
        <mxCell id="QoBP-1hQRRKNbY7nbJOW-52" value="O2" style="shape=partialRectangle;html=1;whiteSpace=wrap;connectable=0;strokeColor=inherit;overflow=hidden;fillColor=none;top=0;left=0;bottom=0;right=0;pointerEvents=1;fontSize=16;" vertex="1" parent="QoBP-1hQRRKNbY7nbJOW-50">
          <mxGeometry x="100" width="100" height="40" as="geometry">
            <mxRectangle width="100" height="40" as="alternateBounds" />
          </mxGeometry>
        </mxCell>
        <mxCell id="QoBP-1hQRRKNbY7nbJOW-53" value="201" style="shape=partialRectangle;html=1;whiteSpace=wrap;connectable=0;strokeColor=inherit;overflow=hidden;fillColor=none;top=0;left=0;bottom=0;right=0;pointerEvents=1;fontSize=16;" vertex="1" parent="QoBP-1hQRRKNbY7nbJOW-50">
          <mxGeometry x="200" width="110" height="40" as="geometry">
            <mxRectangle width="110" height="40" as="alternateBounds" />
          </mxGeometry>
        </mxCell>
        <mxCell id="QoBP-1hQRRKNbY7nbJOW-54" value="" style="shape=tableRow;horizontal=0;startSize=0;swimlaneHead=0;swimlaneBody=0;strokeColor=inherit;top=0;left=0;bottom=0;right=0;collapsible=0;dropTarget=0;fillColor=none;points=[[0,0.5],[1,0.5]];portConstraint=eastwest;fontSize=16;" vertex="1" parent="QoBP-1hQRRKNbY7nbJOW-45">
          <mxGeometry y="80" width="310" height="40" as="geometry" />
        </mxCell>
        <mxCell id="QoBP-1hQRRKNbY7nbJOW-55" value="2" style="shape=partialRectangle;html=1;whiteSpace=wrap;connectable=0;strokeColor=inherit;overflow=hidden;fillColor=none;top=0;left=0;bottom=0;right=0;pointerEvents=1;fontSize=16;" vertex="1" parent="QoBP-1hQRRKNbY7nbJOW-54">
          <mxGeometry width="100" height="40" as="geometry">
            <mxRectangle width="100" height="40" as="alternateBounds" />
          </mxGeometry>
        </mxCell>
        <mxCell id="QoBP-1hQRRKNbY7nbJOW-56" value="O3" style="shape=partialRectangle;html=1;whiteSpace=wrap;connectable=0;strokeColor=inherit;overflow=hidden;fillColor=none;top=0;left=0;bottom=0;right=0;pointerEvents=1;fontSize=16;" vertex="1" parent="QoBP-1hQRRKNbY7nbJOW-54">
          <mxGeometry x="100" width="100" height="40" as="geometry">
            <mxRectangle width="100" height="40" as="alternateBounds" />
          </mxGeometry>
        </mxCell>
        <mxCell id="QoBP-1hQRRKNbY7nbJOW-57" value="102" style="shape=partialRectangle;html=1;whiteSpace=wrap;connectable=0;strokeColor=inherit;overflow=hidden;fillColor=none;top=0;left=0;bottom=0;right=0;pointerEvents=1;fontSize=16;" vertex="1" parent="QoBP-1hQRRKNbY7nbJOW-54">
          <mxGeometry x="200" width="110" height="40" as="geometry">
            <mxRectangle width="110" height="40" as="alternateBounds" />
          </mxGeometry>
        </mxCell>
        <mxCell id="QoBP-1hQRRKNbY7nbJOW-58" value="" style="strokeWidth=2;html=1;shape=mxgraph.flowchart.annotation_2;align=left;labelPosition=right;pointerEvents=1;rotation=-90;" vertex="1" parent="1">
          <mxGeometry x="342.5" y="322.5" width="45" height="110" as="geometry" />
        </mxCell>
        <mxCell id="QoBP-1hQRRKNbY7nbJOW-59" value="" style="endArrow=none;html=1;rounded=0;entryX=0.826;entryY=1.075;entryDx=0;entryDy=0;entryPerimeter=0;strokeWidth=2;" edge="1" parent="1" target="QoBP-1hQRRKNbY7nbJOW-54">
          <mxGeometry width="50" height="50" relative="1" as="geometry">
            <mxPoint x="526" y="400" as="sourcePoint" />
            <mxPoint x="540" y="370" as="targetPoint" />
          </mxGeometry>
        </mxCell>
        <mxCell id="QoBP-1hQRRKNbY7nbJOW-60" value="Partition Key" style="text;html=1;strokeColor=none;fillColor=none;align=center;verticalAlign=middle;whiteSpace=wrap;rounded=0;" vertex="1" parent="1">
          <mxGeometry x="335" y="403" width="75" height="30" as="geometry" />
        </mxCell>
        <mxCell id="QoBP-1hQRRKNbY7nbJOW-61" value="Sort Key" style="text;html=1;strokeColor=none;fillColor=none;align=center;verticalAlign=middle;whiteSpace=wrap;rounded=0;" vertex="1" parent="1">
          <mxGeometry x="500" y="402.5" width="60" height="30" as="geometry" />
        </mxCell>
        <mxCell id="QoBP-1hQRRKNbY7nbJOW-75" value="" style="shape=table;startSize=0;container=1;collapsible=0;childLayout=tableLayout;fontSize=16;" vertex="1" parent="1">
          <mxGeometry x="580" y="110" width="310" height="120" as="geometry" />
        </mxCell>
        <mxCell id="QoBP-1hQRRKNbY7nbJOW-76" value="" style="shape=tableRow;horizontal=0;startSize=0;swimlaneHead=0;swimlaneBody=0;strokeColor=inherit;top=0;left=0;bottom=0;right=0;collapsible=0;dropTarget=0;fillColor=none;points=[[0,0.5],[1,0.5]];portConstraint=eastwest;fontSize=16;" vertex="1" parent="QoBP-1hQRRKNbY7nbJOW-75">
          <mxGeometry width="310" height="40" as="geometry" />
        </mxCell>
        <mxCell id="QoBP-1hQRRKNbY7nbJOW-77" value="Timestamp" style="shape=partialRectangle;html=1;whiteSpace=wrap;connectable=0;strokeColor=inherit;overflow=hidden;fillColor=none;top=0;left=0;bottom=0;right=0;pointerEvents=1;fontSize=16;" vertex="1" parent="QoBP-1hQRRKNbY7nbJOW-76">
          <mxGeometry width="100" height="40" as="geometry">
            <mxRectangle width="100" height="40" as="alternateBounds" />
          </mxGeometry>
        </mxCell>
        <mxCell id="QoBP-1hQRRKNbY7nbJOW-78" value="Product Name" style="shape=partialRectangle;html=1;whiteSpace=wrap;connectable=0;strokeColor=inherit;overflow=hidden;fillColor=none;top=0;left=0;bottom=0;right=0;pointerEvents=1;fontSize=16;" vertex="1" parent="QoBP-1hQRRKNbY7nbJOW-76">
          <mxGeometry x="100" width="100" height="40" as="geometry">
            <mxRectangle width="100" height="40" as="alternateBounds" />
          </mxGeometry>
        </mxCell>
        <mxCell id="QoBP-1hQRRKNbY7nbJOW-79" value="Cashier ID" style="shape=partialRectangle;html=1;whiteSpace=wrap;connectable=0;strokeColor=inherit;overflow=hidden;fillColor=none;top=0;left=0;bottom=0;right=0;pointerEvents=1;fontSize=16;" vertex="1" parent="QoBP-1hQRRKNbY7nbJOW-76">
          <mxGeometry x="200" width="110" height="40" as="geometry">
            <mxRectangle width="110" height="40" as="alternateBounds" />
          </mxGeometry>
        </mxCell>
        <mxCell id="QoBP-1hQRRKNbY7nbJOW-80" value="" style="shape=tableRow;horizontal=0;startSize=0;swimlaneHead=0;swimlaneBody=0;strokeColor=inherit;top=0;left=0;bottom=0;right=0;collapsible=0;dropTarget=0;fillColor=none;points=[[0,0.5],[1,0.5]];portConstraint=eastwest;fontSize=16;" vertex="1" parent="QoBP-1hQRRKNbY7nbJOW-75">
          <mxGeometry y="40" width="310" height="40" as="geometry" />
        </mxCell>
        <mxCell id="QoBP-1hQRRKNbY7nbJOW-81" value="1691338237" style="shape=partialRectangle;html=1;whiteSpace=wrap;connectable=0;strokeColor=inherit;overflow=hidden;fillColor=none;top=0;left=0;bottom=0;right=0;pointerEvents=1;fontSize=16;" vertex="1" parent="QoBP-1hQRRKNbY7nbJOW-80">
          <mxGeometry width="100" height="40" as="geometry">
            <mxRectangle width="100" height="40" as="alternateBounds" />
          </mxGeometry>
        </mxCell>
        <mxCell id="QoBP-1hQRRKNbY7nbJOW-82" value="Pepsi" style="shape=partialRectangle;html=1;whiteSpace=wrap;connectable=0;strokeColor=inherit;overflow=hidden;fillColor=none;top=0;left=0;bottom=0;right=0;pointerEvents=1;fontSize=16;" vertex="1" parent="QoBP-1hQRRKNbY7nbJOW-80">
          <mxGeometry x="100" width="100" height="40" as="geometry">
            <mxRectangle width="100" height="40" as="alternateBounds" />
          </mxGeometry>
        </mxCell>
        <mxCell id="QoBP-1hQRRKNbY7nbJOW-83" value="ABC" style="shape=partialRectangle;html=1;whiteSpace=wrap;connectable=0;strokeColor=inherit;overflow=hidden;fillColor=none;top=0;left=0;bottom=0;right=0;pointerEvents=1;fontSize=16;" vertex="1" parent="QoBP-1hQRRKNbY7nbJOW-80">
          <mxGeometry x="200" width="110" height="40" as="geometry">
            <mxRectangle width="110" height="40" as="alternateBounds" />
          </mxGeometry>
        </mxCell>
        <mxCell id="QoBP-1hQRRKNbY7nbJOW-84" value="" style="shape=tableRow;horizontal=0;startSize=0;swimlaneHead=0;swimlaneBody=0;strokeColor=inherit;top=0;left=0;bottom=0;right=0;collapsible=0;dropTarget=0;fillColor=none;points=[[0,0.5],[1,0.5]];portConstraint=eastwest;fontSize=16;" vertex="1" parent="QoBP-1hQRRKNbY7nbJOW-75">
          <mxGeometry y="80" width="310" height="40" as="geometry" />
        </mxCell>
        <mxCell id="QoBP-1hQRRKNbY7nbJOW-85" value="1691338237" style="shape=partialRectangle;html=1;whiteSpace=wrap;connectable=0;strokeColor=inherit;overflow=hidden;fillColor=none;top=0;left=0;bottom=0;right=0;pointerEvents=1;fontSize=16;" vertex="1" parent="QoBP-1hQRRKNbY7nbJOW-84">
          <mxGeometry width="100" height="40" as="geometry">
            <mxRectangle width="100" height="40" as="alternateBounds" />
          </mxGeometry>
        </mxCell>
        <mxCell id="QoBP-1hQRRKNbY7nbJOW-86" value="Cola" style="shape=partialRectangle;html=1;whiteSpace=wrap;connectable=0;strokeColor=inherit;overflow=hidden;fillColor=none;top=0;left=0;bottom=0;right=0;pointerEvents=1;fontSize=16;" vertex="1" parent="QoBP-1hQRRKNbY7nbJOW-84">
          <mxGeometry x="100" width="100" height="40" as="geometry">
            <mxRectangle width="100" height="40" as="alternateBounds" />
          </mxGeometry>
        </mxCell>
        <mxCell id="QoBP-1hQRRKNbY7nbJOW-87" value="ABC" style="shape=partialRectangle;html=1;whiteSpace=wrap;connectable=0;strokeColor=inherit;overflow=hidden;fillColor=none;top=0;left=0;bottom=0;right=0;pointerEvents=1;fontSize=16;" vertex="1" parent="QoBP-1hQRRKNbY7nbJOW-84">
          <mxGeometry x="200" width="110" height="40" as="geometry">
            <mxRectangle width="110" height="40" as="alternateBounds" />
          </mxGeometry>
        </mxCell>
        <mxCell id="QoBP-1hQRRKNbY7nbJOW-88" value="" style="shape=table;startSize=0;container=1;collapsible=0;childLayout=tableLayout;fontSize=16;" vertex="1" parent="1">
          <mxGeometry x="580" y="230" width="310" height="120" as="geometry" />
        </mxCell>
        <mxCell id="QoBP-1hQRRKNbY7nbJOW-89" value="" style="shape=tableRow;horizontal=0;startSize=0;swimlaneHead=0;swimlaneBody=0;strokeColor=inherit;top=0;left=0;bottom=0;right=0;collapsible=0;dropTarget=0;fillColor=none;points=[[0,0.5],[1,0.5]];portConstraint=eastwest;fontSize=16;" vertex="1" parent="QoBP-1hQRRKNbY7nbJOW-88">
          <mxGeometry width="310" height="40" as="geometry" />
        </mxCell>
        <mxCell id="QoBP-1hQRRKNbY7nbJOW-90" value="1691338277" style="shape=partialRectangle;html=1;whiteSpace=wrap;connectable=0;strokeColor=inherit;overflow=hidden;fillColor=none;top=0;left=0;bottom=0;right=0;pointerEvents=1;fontSize=16;" vertex="1" parent="QoBP-1hQRRKNbY7nbJOW-89">
          <mxGeometry width="100" height="40" as="geometry">
            <mxRectangle width="100" height="40" as="alternateBounds" />
          </mxGeometry>
        </mxCell>
        <mxCell id="QoBP-1hQRRKNbY7nbJOW-91" value="Pepsi" style="shape=partialRectangle;html=1;whiteSpace=wrap;connectable=0;strokeColor=inherit;overflow=hidden;fillColor=none;top=0;left=0;bottom=0;right=0;pointerEvents=1;fontSize=16;" vertex="1" parent="QoBP-1hQRRKNbY7nbJOW-89">
          <mxGeometry x="100" width="100" height="40" as="geometry">
            <mxRectangle width="100" height="40" as="alternateBounds" />
          </mxGeometry>
        </mxCell>
        <mxCell id="QoBP-1hQRRKNbY7nbJOW-92" value="ABC" style="shape=partialRectangle;html=1;whiteSpace=wrap;connectable=0;strokeColor=inherit;overflow=hidden;fillColor=none;top=0;left=0;bottom=0;right=0;pointerEvents=1;fontSize=16;" vertex="1" parent="QoBP-1hQRRKNbY7nbJOW-89">
          <mxGeometry x="200" width="110" height="40" as="geometry">
            <mxRectangle width="110" height="40" as="alternateBounds" />
          </mxGeometry>
        </mxCell>
        <mxCell id="QoBP-1hQRRKNbY7nbJOW-93" value="" style="shape=tableRow;horizontal=0;startSize=0;swimlaneHead=0;swimlaneBody=0;strokeColor=inherit;top=0;left=0;bottom=0;right=0;collapsible=0;dropTarget=0;fillColor=none;points=[[0,0.5],[1,0.5]];portConstraint=eastwest;fontSize=16;" vertex="1" parent="QoBP-1hQRRKNbY7nbJOW-88">
          <mxGeometry y="40" width="310" height="40" as="geometry" />
        </mxCell>
        <mxCell id="QoBP-1hQRRKNbY7nbJOW-94" value="1691338277" style="shape=partialRectangle;html=1;whiteSpace=wrap;connectable=0;strokeColor=inherit;overflow=hidden;fillColor=none;top=0;left=0;bottom=0;right=0;pointerEvents=1;fontSize=16;" vertex="1" parent="QoBP-1hQRRKNbY7nbJOW-93">
          <mxGeometry width="100" height="40" as="geometry">
            <mxRectangle width="100" height="40" as="alternateBounds" />
          </mxGeometry>
        </mxCell>
        <mxCell id="QoBP-1hQRRKNbY7nbJOW-95" value="Nutella" style="shape=partialRectangle;html=1;whiteSpace=wrap;connectable=0;strokeColor=inherit;overflow=hidden;fillColor=none;top=0;left=0;bottom=0;right=0;pointerEvents=1;fontSize=16;" vertex="1" parent="QoBP-1hQRRKNbY7nbJOW-93">
          <mxGeometry x="100" width="100" height="40" as="geometry">
            <mxRectangle width="100" height="40" as="alternateBounds" />
          </mxGeometry>
        </mxCell>
        <mxCell id="QoBP-1hQRRKNbY7nbJOW-96" value="ABC" style="shape=partialRectangle;html=1;whiteSpace=wrap;connectable=0;strokeColor=inherit;overflow=hidden;fillColor=none;top=0;left=0;bottom=0;right=0;pointerEvents=1;fontSize=16;" vertex="1" parent="QoBP-1hQRRKNbY7nbJOW-93">
          <mxGeometry x="200" width="110" height="40" as="geometry">
            <mxRectangle width="110" height="40" as="alternateBounds" />
          </mxGeometry>
        </mxCell>
        <mxCell id="QoBP-1hQRRKNbY7nbJOW-97" value="" style="shape=tableRow;horizontal=0;startSize=0;swimlaneHead=0;swimlaneBody=0;strokeColor=inherit;top=0;left=0;bottom=0;right=0;collapsible=0;dropTarget=0;fillColor=none;points=[[0,0.5],[1,0.5]];portConstraint=eastwest;fontSize=16;" vertex="1" parent="QoBP-1hQRRKNbY7nbJOW-88">
          <mxGeometry y="80" width="310" height="40" as="geometry" />
        </mxCell>
        <mxCell id="QoBP-1hQRRKNbY7nbJOW-98" value="1691338517" style="shape=partialRectangle;html=1;whiteSpace=wrap;connectable=0;strokeColor=inherit;overflow=hidden;fillColor=none;top=0;left=0;bottom=0;right=0;pointerEvents=1;fontSize=16;" vertex="1" parent="QoBP-1hQRRKNbY7nbJOW-97">
          <mxGeometry width="100" height="40" as="geometry">
            <mxRectangle width="100" height="40" as="alternateBounds" />
          </mxGeometry>
        </mxCell>
        <mxCell id="QoBP-1hQRRKNbY7nbJOW-99" value="Cola" style="shape=partialRectangle;html=1;whiteSpace=wrap;connectable=0;strokeColor=inherit;overflow=hidden;fillColor=none;top=0;left=0;bottom=0;right=0;pointerEvents=1;fontSize=16;" vertex="1" parent="QoBP-1hQRRKNbY7nbJOW-97">
          <mxGeometry x="100" width="100" height="40" as="geometry">
            <mxRectangle width="100" height="40" as="alternateBounds" />
          </mxGeometry>
        </mxCell>
        <mxCell id="QoBP-1hQRRKNbY7nbJOW-100" value="PQR" style="shape=partialRectangle;html=1;whiteSpace=wrap;connectable=0;strokeColor=inherit;overflow=hidden;fillColor=none;top=0;left=0;bottom=0;right=0;pointerEvents=1;fontSize=16;" vertex="1" parent="QoBP-1hQRRKNbY7nbJOW-97">
          <mxGeometry x="200" width="110" height="40" as="geometry">
            <mxRectangle width="110" height="40" as="alternateBounds" />
          </mxGeometry>
        </mxCell>
        <mxCell id="QoBP-1hQRRKNbY7nbJOW-101" value="" style="strokeWidth=2;html=1;shape=mxgraph.flowchart.annotation_1;align=left;pointerEvents=1;rotation=-90;" vertex="1" parent="1">
          <mxGeometry x="421.64" y="299.7" width="30.38" height="251.52" as="geometry" />
        </mxCell>
        <mxCell id="QoBP-1hQRRKNbY7nbJOW-104" value="" style="endArrow=none;html=1;rounded=0;exitX=0;exitY=0.5;exitDx=0;exitDy=0;exitPerimeter=0;strokeWidth=2;" edge="1" parent="1" source="QoBP-1hQRRKNbY7nbJOW-101">
          <mxGeometry width="50" height="50" relative="1" as="geometry">
            <mxPoint x="520" y="380" as="sourcePoint" />
            <mxPoint x="437" y="470" as="targetPoint" />
          </mxGeometry>
        </mxCell>
        <mxCell id="QoBP-1hQRRKNbY7nbJOW-105" value="Primary Key" style="text;html=1;strokeColor=none;fillColor=none;align=center;verticalAlign=middle;whiteSpace=wrap;rounded=0;" vertex="1" parent="1">
          <mxGeometry x="401.83" y="470" width="70" height="30" as="geometry" />
        </mxCell>
        <mxCell id="QoBP-1hQRRKNbY7nbJOW-107" value="" style="endArrow=none;html=1;rounded=0;exitX=0.006;exitY=0.975;exitDx=0;exitDy=0;exitPerimeter=0;entryX=0.997;entryY=-0.025;entryDx=0;entryDy=0;entryPerimeter=0;strokeWidth=2;" edge="1" parent="1" source="QoBP-1hQRRKNbY7nbJOW-41" target="QoBP-1hQRRKNbY7nbJOW-89">
          <mxGeometry width="50" height="50" relative="1" as="geometry">
            <mxPoint x="470" y="300" as="sourcePoint" />
            <mxPoint x="520" y="250" as="targetPoint" />
          </mxGeometry>
        </mxCell>
        <mxCell id="QoBP-1hQRRKNbY7nbJOW-108" value="" style="endArrow=none;html=1;rounded=0;exitX=0.006;exitY=0.025;exitDx=0;exitDy=0;exitPerimeter=0;entryX=0.997;entryY=-0.025;entryDx=0;entryDy=0;entryPerimeter=0;strokeWidth=2;" edge="1" parent="1" source="QoBP-1hQRRKNbY7nbJOW-54" target="QoBP-1hQRRKNbY7nbJOW-97">
          <mxGeometry width="50" height="50" relative="1" as="geometry">
            <mxPoint x="470" y="300" as="sourcePoint" />
            <mxPoint x="520" y="250" as="targetPoint" />
          </mxGeometry>
        </mxCell>
        <mxCell id="QoBP-1hQRRKNbY7nbJOW-109" value="Node #1" style="shape=cylinder3;whiteSpace=wrap;html=1;boundedLbl=1;backgroundOutline=1;size=15;" vertex="1" parent="1">
          <mxGeometry x="80" y="150" width="60" height="80" as="geometry" />
        </mxCell>
        <mxCell id="QoBP-1hQRRKNbY7nbJOW-110" value="Node #2" style="shape=cylinder3;whiteSpace=wrap;html=1;boundedLbl=1;backgroundOutline=1;size=15;" vertex="1" parent="1">
          <mxGeometry x="80" y="250" width="60" height="80" as="geometry" />
        </mxCell>
        <mxCell id="QoBP-1hQRRKNbY7nbJOW-111" value="Node #3" style="shape=cylinder3;whiteSpace=wrap;html=1;boundedLbl=1;backgroundOutline=1;size=15;" vertex="1" parent="1">
          <mxGeometry x="80" y="350" width="60" height="80" as="geometry" />
        </mxCell>
        <mxCell id="QoBP-1hQRRKNbY7nbJOW-112" value="" style="endArrow=none;html=1;rounded=0;exitX=0.642;exitY=0.025;exitDx=0;exitDy=0;exitPerimeter=0;entryX=0.645;entryY=1;entryDx=0;entryDy=0;entryPerimeter=0;strokeWidth=2;" edge="1" parent="1" source="QoBP-1hQRRKNbY7nbJOW-33" target="QoBP-1hQRRKNbY7nbJOW-54">
          <mxGeometry width="50" height="50" relative="1" as="geometry">
            <mxPoint x="470" y="300" as="sourcePoint" />
            <mxPoint x="520" y="250" as="targetPoint" />
          </mxGeometry>
        </mxCell>
        <mxCell id="QoBP-1hQRRKNbY7nbJOW-113" value="" style="endArrow=none;html=1;rounded=0;exitX=-0.003;exitY=-0.025;exitDx=0;exitDy=0;exitPerimeter=0;entryX=-0.003;entryY=0.975;entryDx=0;entryDy=0;entryPerimeter=0;strokeWidth=2;" edge="1" parent="1" source="QoBP-1hQRRKNbY7nbJOW-76" target="QoBP-1hQRRKNbY7nbJOW-97">
          <mxGeometry width="50" height="50" relative="1" as="geometry">
            <mxPoint x="470" y="300" as="sourcePoint" />
            <mxPoint x="520" y="250" as="targetPoint" />
          </mxGeometry>
        </mxCell>
        <mxCell id="QoBP-1hQRRKNbY7nbJOW-114" value="" style="endArrow=none;html=1;rounded=0;exitX=1;exitY=0.5;exitDx=0;exitDy=0;exitPerimeter=0;entryX=0;entryY=0.5;entryDx=0;entryDy=0;" edge="1" parent="1" source="QoBP-1hQRRKNbY7nbJOW-109" target="QoBP-1hQRRKNbY7nbJOW-37">
          <mxGeometry width="50" height="50" relative="1" as="geometry">
            <mxPoint x="470" y="300" as="sourcePoint" />
            <mxPoint x="520" y="250" as="targetPoint" />
          </mxGeometry>
        </mxCell>
        <mxCell id="QoBP-1hQRRKNbY7nbJOW-115" value="" style="endArrow=none;html=1;rounded=0;entryX=0;entryY=0.5;entryDx=0;entryDy=0;" edge="1" parent="1" target="QoBP-1hQRRKNbY7nbJOW-41">
          <mxGeometry width="50" height="50" relative="1" as="geometry">
            <mxPoint x="140" y="190" as="sourcePoint" />
            <mxPoint x="520" y="250" as="targetPoint" />
          </mxGeometry>
        </mxCell>
        <mxCell id="QoBP-1hQRRKNbY7nbJOW-116" value="" style="endArrow=none;html=1;rounded=0;exitX=1;exitY=0.5;exitDx=0;exitDy=0;exitPerimeter=0;entryX=0;entryY=0.5;entryDx=0;entryDy=0;" edge="1" parent="1" source="QoBP-1hQRRKNbY7nbJOW-110" target="QoBP-1hQRRKNbY7nbJOW-46">
          <mxGeometry width="50" height="50" relative="1" as="geometry">
            <mxPoint x="470" y="300" as="sourcePoint" />
            <mxPoint x="520" y="250" as="targetPoint" />
          </mxGeometry>
        </mxCell>
        <mxCell id="QoBP-1hQRRKNbY7nbJOW-117" value="" style="endArrow=none;html=1;rounded=0;exitX=1;exitY=0.5;exitDx=0;exitDy=0;exitPerimeter=0;entryX=0;entryY=0.5;entryDx=0;entryDy=0;" edge="1" parent="1" source="QoBP-1hQRRKNbY7nbJOW-110" target="QoBP-1hQRRKNbY7nbJOW-50">
          <mxGeometry width="50" height="50" relative="1" as="geometry">
            <mxPoint x="470" y="300" as="sourcePoint" />
            <mxPoint x="520" y="250" as="targetPoint" />
          </mxGeometry>
        </mxCell>
        <mxCell id="QoBP-1hQRRKNbY7nbJOW-118" value="" style="endArrow=none;html=1;rounded=0;exitX=1;exitY=0.5;exitDx=0;exitDy=0;exitPerimeter=0;entryX=0;entryY=0.5;entryDx=0;entryDy=0;" edge="1" parent="1" source="QoBP-1hQRRKNbY7nbJOW-111" target="QoBP-1hQRRKNbY7nbJOW-54">
          <mxGeometry width="50" height="50" relative="1" as="geometry">
            <mxPoint x="470" y="300" as="sourcePoint" />
            <mxPoint x="520" y="250" as="targetPoint" />
          </mxGeometry>
        </mxCell>
      </root>
    </mxGraphModel>
  </diagram>
</mxfile>
